<svg xmlns="http://www.w3.org/2000/svg" width="32" height="32" viewBox="0 0 32 32">
  <g id="Group_54" data-name="Group 54" transform="translate(-6268 -492)">
    <circle id="Ellipse_7" data-name="Ellipse 7" cx="16" cy="16" r="16" transform="translate(6268 492)" fill="#2d2e34"/>
    <g id="Group_53" data-name="Group 53" transform="translate(6235.76 485.76)">
      <path id="Path_140" data-name="Path 140" d="M7.308,24.479a5.77,5.77,0,0,1-.789-.056,4.173,4.173,0,0,1-1.305-.4,6.4,6.4,0,0,1-1.86-1.406,8.518,8.518,0,0,1-1.251-1.8,2.576,2.576,0,0,1-.176-.412,1.513,1.513,0,0,1-.061-.458c0-.835,0-1.681.008-2.514,0-.381,0-.73,0-1.036-.009-.513-.021-1.029-.035-1.535a1.05,1.05,0,0,0-.183-.576,1.333,1.333,0,0,1-.158-.32.213.213,0,0,1,.022-.18.246.246,0,0,1,.208-.134c.1,0,.178.065.233.194a5.6,5.6,0,0,0,.3.546,23.259,23.259,0,0,1,1.493,2.969q0-.108-.008-.215C3.674,15.637,3.594,14.11,3.5,12.6a5.067,5.067,0,0,1-.756.224,2.49,2.49,0,0,1-.52.057,2.2,2.2,0,0,1-.708-.116A2.245,2.245,0,0,1,0,10.517c0-.211.011-.427.018-.644,0-.143.009-.358.013-.639A14.385,14.385,0,0,1,.426,6.018,9.255,9.255,0,0,1,2.161,2.471a6.2,6.2,0,0,1,.919-.939A8.615,8.615,0,0,1,3.938.91,5.648,5.648,0,0,1,5.845.135,7.2,7.2,0,0,1,7.275,0c.136,0,.277,0,.417.01a6.284,6.284,0,0,1,3.667,1.384A7.465,7.465,0,0,1,13.316,3.7a9.619,9.619,0,0,1,1.047,3.14,19.578,19.578,0,0,1,.219,2.494c0,.192.012.445.024.752a6.413,6.413,0,0,1-.008.775,2.546,2.546,0,0,1-.294.836,2.183,2.183,0,0,1-2.026,1.138,3.39,3.39,0,0,1-.638-.063h-.007a5.25,5.25,0,0,1-.537-.188c-.045.609-.083,1.227-.112,1.837,0,0,0,.015-.04.788-.035.689-.05,1.383-.044,2.071q.108-.266.233-.522c.439-.894.836-1.631,1.181-2.192.2-.324.34-.568.417-.725a.314.314,0,0,1,.146-.157.237.237,0,0,1,.1-.021.248.248,0,0,1,.193.1.2.2,0,0,1,.028.209q-.1.217-.331.617a.586.586,0,0,0-.063.244q-.023.338-.049.678c-.018.227-.027.45-.027.665v4a1.127,1.127,0,0,1-.159.458,8.75,8.75,0,0,1-1.588,2.188,7.652,7.652,0,0,1-.8.705,4.677,4.677,0,0,1-2.874.96m-.83-.56a5.526,5.526,0,0,0,.9.075h0a5.221,5.221,0,0,0,.773-.058L8.139,21.1A3.737,3.737,0,0,1,7.3,21.2a3.992,3.992,0,0,1-.817-.087ZM4.222,19.377c0,1.113,0,2.222.013,3.3,0,0,0,.031,0,.081a.079.079,0,0,0,.035.081,1.161,1.161,0,0,1,.1.071,4.6,4.6,0,0,0,1.66.909V20.977a3.019,3.019,0,0,1-.332-.151,2.513,2.513,0,0,1-.377-.251,5.12,5.12,0,0,1-1.091-1.2M8.61,23.808a4.873,4.873,0,0,0,1.817-1.1.02.02,0,0,0,.005-.014l.008-3.416a5.774,5.774,0,0,1-.461.627,4.1,4.1,0,0,1-1.37,1.049ZM2.325,15.469c.018,1.448.018,2.89,0,4.293a1.935,1.935,0,0,0,.037.475,2.117,2.117,0,0,0,.188.452A8.463,8.463,0,0,0,3.76,22.371c.01-1.263.008-2.542-.006-3.8a.337.337,0,0,0-.047-.12,1.788,1.788,0,0,1-.092-.2,18.276,18.276,0,0,0-.975-2.2l-.315-.581m9.894.186-.163.286a12.951,12.951,0,0,0-.892,1.943c-.055.152-.118.3-.187.451a.865.865,0,0,0-.089.352c-.021,1.085-.023,2.285-.006,3.571a8.023,8.023,0,0,0,1.3-1.929.966.966,0,0,0,.069-.409c0-1.3,0-2.628,0-3.956,0-.143,0-.276.012-.4l-.05.088M6.475,20.618a4.013,4.013,0,0,0,.843.09h0a4.117,4.117,0,0,0,.836-.087l.009-2.932a3.117,3.117,0,0,1-.873.126,3.251,3.251,0,0,1-.8-.1c0,.035,0,.07,0,.105-.011.173-.013.22-.013.232ZM4.239,18.474a5.394,5.394,0,0,0,.976,1.395,2.888,2.888,0,0,0,.816.592L6.02,17.551a2.926,2.926,0,0,1-1.127-1.026,4.826,4.826,0,0,0-.654,1.948M8.61,20.438a3.883,3.883,0,0,0,1.365-1.282c.063-.1.136-.214.217-.347.069-.113.135-.23.195-.349a1.006,1.006,0,0,0,.043-.094,3.815,3.815,0,0,0-.361-1.2,6.185,6.185,0,0,0-.4-.7A2.36,2.36,0,0,1,8.61,17.522ZM6.478,17.212a2.851,2.851,0,0,0,.821.124,2.891,2.891,0,0,0,.855-.133l0-1.893a3.361,3.361,0,0,0-1.673-.051ZM5.172,16.1a2.179,2.179,0,0,0,.542.688,3.356,3.356,0,0,0,.3.231l-.006-1.589a2.446,2.446,0,0,0-.838.67m3.443.891a1.754,1.754,0,0,0,.147-.1,1.34,1.34,0,0,0,.262-.268,2.811,2.811,0,0,0,.325-.562,1.11,1.11,0,0,0-.107-.131c-.014-.014-.053-.052-.17-.152a2.2,2.2,0,0,0-.448-.3Zm0-2.039A2.943,2.943,0,0,1,9.894,15.98a6.223,6.223,0,0,1,.533.912q0-.133.006-.282c.035-1.185.069-2.036.1-2.531q.052-.814.109-1.689a5.208,5.208,0,0,1-1.108-.9,3.2,3.2,0,0,1-.924.851ZM3.945,12.39c.074,1.153.145,2.32.211,3.472.02.34.033.684.039,1.029a5.634,5.634,0,0,1,.688-1.151A2.663,2.663,0,0,1,6.028,14.9l-.009-2.581a2.786,2.786,0,0,1-.936-.9,5.888,5.888,0,0,1-1.138.966m3.335,2.3c.08,0,.161,0,.242.007a2.827,2.827,0,0,1,.629.11l0-2.283a2.881,2.881,0,0,1-.821.121,3.025,3.025,0,0,1-.858-.128v2.26a3.7,3.7,0,0,1,.805-.087M.57,9.9a2.129,2.129,0,0,0-.069.342,4.182,4.182,0,0,0-.028.43,1.592,1.592,0,0,0,.58,1.3,1.691,1.691,0,0,0,1.143.425h0a2.285,2.285,0,0,0,.447-.047A3.759,3.759,0,0,0,3.45,12.1L3.417,9.884ZM11.154,12.09a3.034,3.034,0,0,0,.973.262c.078.007.156.011.231.011a1.973,1.973,0,0,0,.72-.13,1.563,1.563,0,0,0,.942-.98,1.974,1.974,0,0,0,.113-.7,2.831,2.831,0,0,0-.084-.644c-.678-.018-1.376-.027-2.076-.027-.251,0-.507,0-.762,0Zm-4.667-.08a2.813,2.813,0,0,0,.88.145,2.775,2.775,0,0,0,.8-.12V9.874l-1.692.008ZM9.2,9.871a2.72,2.72,0,0,0,.861,1.5,5.62,5.62,0,0,0,.628.494c.038-.65.055-1.315.052-1.983ZM3.917,11.852a4.654,4.654,0,0,0,.68-.576,2.881,2.881,0,0,0,.749-1.393l-1.469,0Zm4.7-.074a2.6,2.6,0,0,0,.619-.657,3.278,3.278,0,0,1-.492-1.252l-.058,0-.064,0Zm-3.246-.72a2.711,2.711,0,0,0,.514.6q.07.061.147.117L6.007,9.884H5.822a4.156,4.156,0,0,1-.453,1.172m3.246-1.63.029,0H8.72a1.92,1.92,0,0,1,1.489-1.878Q10.117,7.479,10,7.4A4.648,4.648,0,0,0,8.622,6.74Zm3.6-.025c.4,0,.813,0,1.221.013l.222,0h.159a2.139,2.139,0,0,0-.326-.407,3.7,3.7,0,0,0-2.262-1.055c-.019.461-.025.95-.019,1.456.331-.006.669-.009,1-.009m-9.1,0,.21.01.078,0h.011V7.961A3.3,3.3,0,0,0,.951,9.194a1.5,1.5,0,0,0-.135.191L.8,9.408C1.259,9.4,1.721,9.4,2.178,9.4c.311,0,.626,0,.937,0Zm2.9.01v-2.7a4.016,4.016,0,0,0-1.626.878,1.936,1.936,0,0,1,1.45,1.82Zm-.634,0A1.472,1.472,0,0,0,4.349,8.08a2.163,2.163,0,0,0-.464-.117L3.873,9.405Zm5.371-1.471a1.786,1.786,0,0,0-.494.083,1.638,1.638,0,0,0-.522.274,1.481,1.481,0,0,0-.566,1.111l1.575,0ZM6.475,9.4l1.688,0L8.145,6.638a5.06,5.06,0,0,0-1.659-.02Zm4.751-1.933a4.076,4.076,0,0,1,2.461,1.1A10.046,10.046,0,0,0,11.223,5.23ZM3.4,5.282a6.2,6.2,0,0,0-.54.524A13.792,13.792,0,0,0,1.126,8.188q-.1.173-.187.351A3.734,3.734,0,0,1,3.412,7.477Zm-.012-3.4a4.619,4.619,0,0,0-.637.6A8.173,8.173,0,0,0,1.219,5.043a10.861,10.861,0,0,0-.578,2.49q-.049.409-.077.75A13.279,13.279,0,0,1,2.737,5.277a5.47,5.47,0,0,1,.68-.594Zm7.848,2.787a8.488,8.488,0,0,1,1.938,2.074c.223.338.439.688.642,1.039q.121.21.228.433c-.028-.32-.061-.64-.1-.958a12.392,12.392,0,0,0-.282-1.424A7.564,7.564,0,0,0,11.228,1.86ZM3.885,7.441A4.411,4.411,0,0,1,6.01,6.221l.006-2.213a5.524,5.524,0,0,0-2.166.957Zm4.728-1.2a5.167,5.167,0,0,1,2.143,1.153l.013-2.471-.49-.281a5.417,5.417,0,0,0-1.661-.614ZM7.384,6.072a4.874,4.874,0,0,1,.77.069l0-2.194c-.26-.025-.531-.038-.806-.038s-.571.013-.868.039V6.132a6.654,6.654,0,0,1,.87-.061ZM3.869,4.382a5.626,5.626,0,0,1,2.158-.858c-.017-1.257-.019-2.117,0-2.56,0-.15.009-.271.011-.365a5.034,5.034,0,0,0-2.184.954ZM8.61,3.523a7.08,7.08,0,0,1,2.17.842l-.008-2.839A6.349,6.349,0,0,0,8.619.6ZM7.333,3.431c.113,0,.227,0,.341.006.152,0,.313.015.48.031V.531A7.086,7.086,0,0,0,7.31.481a7.555,7.555,0,0,0-.835.047V3.467c.283-.024.571-.036.858-.036" transform="translate(40.897 10.001)" fill="#d9dee2"/>
      <rect id="Rectangle_14" data-name="Rectangle 14" width="24" height="24" transform="translate(36.24 10.24)" fill="none"/>
    </g>
  </g>
</svg>
